# xmcd CD database file
#
# Track frame offsets:
#	150
#	16760
#	19814
#	29341
#	32103
#	41340
#	44161
#	58133
#	61335
#	80926
#	82571
#	98435
#	122666
#	126580
#	145029
#	162924
#	174439
#	176010
#	191421
#	212385
#	225804
#	240652
#	250914
#	266774
#	285183
#	298933
#	314713
#
# Disc length: 4434
# Revision: 2
# Processed by: cddbd v1.5.2PL0 Copyright (c) Steve Scherf et al.
# Submitted via: cddb.el 1.0 (Emacs 27.0.50)
#
DISCID=7311501b
DTITLE=Bobbie Gentry - The Girl From Chickasaw County (7): Patchwork
DYEAR=2018
DGENRE=
TTITLE0=Benjamin
TTITLE1=Interlude 1
TTITLE2=Marigolds and Tangerines
TTITLE3=Interlude 2
TTITLE4=Billy the Kid
TTITLE5=Interlude 3
TTITLE6=Beverly
TTITLE7=Interlude 4
TTITLE8=Miss Clara/Azusa Sue
TTITLE9=Interlude 5
TTITLE10=But I Can't Get Back
TTITLE11=Jeremiah
TTITLE12=Interlude 6
TTITLE13=Belinda
TTITLE14=Mean Stepmama Blues
TTITLE15=Your Number One Fan
TTITLE16=Interlude 7
TTITLE17=Somebody Like Me
TTITLE18=Lookin' in
TTITLE19=Smoke
TTITLE20=Joanne
TTITLE21=Salome Smith and Her Amazing Dancing Bear
TTITLE22=Benjamin (Alternate Take)
TTITLE23=Belinda (Alternate Take)
TTITLE24=Smoke (Demo)
TTITLE25=The Girl From Cincinnati
TTITLE26=You and Me Together
EXTD=
EXTT0=
EXTT1=
EXTT2=
EXTT3=
EXTT4=
EXTT5=
EXTT6=
EXTT7=
EXTT8=
EXTT9=
EXTT10=
EXTT11=
EXTT12=
EXTT13=
EXTT14=
EXTT15=
EXTT16=
EXTT17=
EXTT18=
EXTT19=
EXTT20=
EXTT21=
EXTT22=
EXTT23=
EXTT24=
EXTT25=
EXTT26=
PLAYORDER=
